<svg width="44" height="37" viewBox="0 0 44 37" fill="none" xmlns="http://www.w3.org/2000/svg">
<path d="M10.5129 12.4304H18.7634V14.9124H10.5129V12.4304Z" fill="white"/>
<path fill-rule="evenodd" clip-rule="evenodd" d="M10.5129 16.8216V24.3312H15.9273C20.8442 24.3519 20.9953 16.8401 15.9273 16.8216H10.5129ZM13.2201 21.9765V19.1126H15.4116C17.7546 19.1191 17.5904 21.9841 15.4116 21.9765H13.2201Z" fill="white"/>
<path d="M21.3416 12.4304V24.3312H24.2422V18.7308L25.9181 24.3312H28.8831L30.5589 18.7308V24.3312H33.4595V12.4304H29.721L27.4006 20.0673L25.0801 12.4304H21.3416Z" fill="white"/>
<path fill-rule="evenodd" clip-rule="evenodd" d="M42.8481 14.3761C44.7956 23.8774 37.0404 33.4448 25.5263 35.7455C14.0123 38.0462 3.0995 32.2089 1.15201 22.7076C-0.79548 13.2062 6.95976 3.63882 18.4738 1.33816C29.9879 -0.962502 40.9007 4.87479 42.8481 14.3761ZM25.0546 33.2644C34.9107 31.295 41.5492 23.1053 39.8822 14.9721C38.2151 6.83895 28.8737 1.84221 19.0177 3.81158C9.16156 5.78096 2.52304 13.9707 4.1901 22.1039C5.85716 30.237 15.1985 35.2338 25.0546 33.2644Z" fill="white"/>
</svg>
